<svg xmlns="http://www.w3.org/2000/svg" xmlns:xlink="http://www.w3.org/1999/xlink" width="1347.044" height="1082.698" viewBox="0 0 1347.044 1082.698"><defs><style>.a,.c{opacity:0.9;}.a{fill:url(#a);}.b{fill:url(#b);}.c{fill:url(#c);}</style><linearGradient id="a" y1="0.449" x2="0.379" y2="0.456" gradientUnits="objectBoundingBox"><stop offset="0" stop-color="#63d0ec"/><stop offset="1" stop-color="#a351b4"/></linearGradient><linearGradient id="b" y1="0.482" x2="1.009" y2="0.483" gradientUnits="objectBoundingBox"><stop offset="0" stop-color="#82a0d5"/><stop offset="1" stop-color="#a25db9"/></linearGradient><linearGradient id="c" y1="0.5" x2="0.766" y2="0.389" gradientUnits="objectBoundingBox"><stop offset="0" stop-color="#829fd6"/><stop offset="1" stop-color="#a15db8"/></linearGradient></defs><g transform="translate(4 0)"><path class="a" d="M742.1,1023.031S596.975,525.189,781.879,366.7c98.368-84.316,348.7-113.672,452.471-202.617,91.629-78.539,43.507-222.506,43.507-222.506H-56.559V1023.031Z" transform="translate(52.559 58.423)"/><path class="b" d="M-53,1023.031H422.637S234.626,941.922,279.687,671.248c23.657-142.1,209.493-163.639,302.061-343.082,84.215-163.251-42.264-387.832-42.264-387.832H-53Z" transform="translate(49 59.666)"/><path class="c" d="M-53,1023.031H361.728S115.293,839.37,151.652,635.2,345.258,339.663,431.339,206.347s59.666-264.77,59.666-264.77H-53Z" transform="translate(49 58.423)"/></g></svg>