<svg xmlns="http://www.w3.org/2000/svg" xmlns:xlink="http://www.w3.org/1999/xlink" width="180" height="157.127" viewBox="0 0 180 157.127"><defs><linearGradient id="a" x1="0.5" x2="0.5" y2="1" gradientUnits="objectBoundingBox"><stop offset="0" stop-color="#00a9e3"/><stop offset="1" stop-color="#ca68a6"/></linearGradient></defs><g transform="translate(0 0)"><path d="M197.324,93.272V148.7a11.733,11.733,0,0,0-2.424,8.05c.139,10.829.068,21.658.052,32.487-.018,7.994-4.626,12.921-12.483,13.189a8.729,8.729,0,0,0-1.459.124H112.323a4.442,4.442,0,0,0-1.07-.143c-8.773-.311-13.168-5.015-13.186-13.826,0-7.515-.071-15.011.052-22.526.034-2.092-.617-2.714-2.689-2.748-1.372-.019-2.726-.106-4.08-.249v-7.888c6.735,1.116,6.716.426,6.716-7.851,0-11.7-.071-23.381.052-35.062.034-2.96-.7-3.171-3.145-1.912-1.215.622-2.427,1.244-3.623,1.9v-5.708c1.406-.69,2.831-1.331,4.274-1.949,1.85-.8,2.566-1.772,2.495-3.812-.157-4.076-.1-8.133-.034-12.213.1-7.586,5.2-12.6,12.745-12.654,4.465-.019,8.943.072,13.4-.037,1.126-.034,3.041.833,3.235-.933a21.689,21.689,0,0,0,.456-3.862h2.467a12.423,12.423,0,0,0,0,2.534c.176,1.806.669,2.375,2.445,2.338,4.552-.106,9.122-.034,13.7-.034s9.122.019,13.7-.019c.789,0,2.091.373,2.18-.672a28.188,28.188,0,0,0,.4-4.148h2.449a31.513,31.513,0,0,0,.441,4.182c.123,1.029,1.44.622,2.214.622,4.694.037,9.372.019,14.047.019,8.033.034,12.952,4.943,13.01,12.956C194.986,93.148,194.986,94.14,197.324,93.272Z" transform="translate(-66.635 -51.034)" fill="url(#a)"/><path d="M406.283,272.147c-1.921,2.649-3.781,5.35-6.168,8.752-2.072-5.486-3.87-10.223-5.6-14.978a2.368,2.368,0,0,1,.672-2.9c.981-.759,1.85-.148,2.649.308,2.467,1.425,4.934,2.911,7.4,4.367C407.135,268.826,407.693,270.21,406.283,272.147Z" transform="translate(-275.285 -182.931)" fill="#fff"/><path d="M409.32,106.244c-2.424,7.691-4.912,15.363-7.383,23.039-3.229,10-6.5,19.98-9.649,30-.641,2.045-1.354,2.362-3.315,1.409-7.154-3.485-14.42-6.753-21.63-10.146-4.592-2.159-4.894-4.29-1.425-7.916q12.36-12.952,24.636-25.965c-10.741,7.682-21.5,15.373-32.185,23.128-3.9,2.843-7.9,3.361-12.252,1.215-2.091-1.03-4.228-1.974-6.349-2.948-1.184-.537-2.5-1.092-2.593-2.535-.117-1.662,1.329-2.267,2.584-2.856q12.258-5.764,24.519-11.484,20.328-9.51,40.681-19c1.378-.645,2.89-1.983,4.407-.675C411.031,102.938,409.807,104.7,409.32,106.244Z" transform="translate(-235.42 -71.377)" fill="#fff"/><path d="M183.292,30.316a12.8,12.8,0,0,0-4.85,1.552q-16.4,7.663-32.835,15.335c-1.186.546-2.108.972-2.816,1.242-2.354.866-2.354-.124-2.388-4.409-.053-8-5.011-12.9-13.1-12.938-4.707,0-9.417.019-14.143-.019-.779,0-2.105.391-2.229-.621a29.763,29.763,0,0,1-.444-4.176,4.189,4.189,0,0,1,.851-2.658c1.91-2.425,1.646-4.741.931-7.238A13.773,13.773,0,0,0,98.958,6.225c-5.226-.158-10.5-.177-15.73-.019A13.874,13.874,0,0,0,69.545,18.278c-.335,2.267-.09,4.108,2.018,5.614a3.058,3.058,0,0,1,1.344,2.372,21.629,21.629,0,0,1-.46,3.856c-.2,1.77-2.124.9-3.257.931-4.5.109-9,.019-13.488.037-7.595.053-12.73,5.061-12.833,12.637-.071,4.074-.124,8.126.034,12.2.071,2.037-.621,3.009-2.512,3.807-1.453.621-2.888,1.257-4.3,1.947A68.4,68.4,0,0,0,19.149,72.758c-3.325,3.061-6.319,6.424-7.5,10.957a10.175,10.175,0,0,0,2.692,10.408c-1.1-6.738,2.034-11.364,6.12-15.553A63.377,63.377,0,0,1,36.1,67.392c1.2-.655,2.425-1.276,3.648-1.894,2.459-1.242,3.2-1.046,3.167,1.91-.124,11.665-.053,23.331-.053,35.015,0,8.265.019,8.955-6.763,7.84-.671-.124-1.416-.248-2.248-.388-8.017-1.363-15.363-4.179-21.791-9.383a22.613,22.613,0,0,0,9.526,12.764A32.153,32.153,0,0,0,36.1,118.14c1.363.143,2.726.23,4.108.248,2.09.034,2.742.655,2.708,2.745-.124,7.5-.053,14.991-.053,22.5.019,8.8,4.443,13.491,13.277,13.808a4.51,4.51,0,0,1,1.077.143c1.152.248,1.577.932,1.472,2.459-.143,2.391,1.344,3.17,3.468,3.17,2.9,0,5.788-.019,8.694,0,2.3.034,3.7-.956,3.7-3.381-.019-1.329.31-2.071,1.5-2.248a3.763,3.763,0,0,1,.692-.053c4.968.034,9.964.053,14.938.053s9.967-.019,14.941-.037a5.972,5.972,0,0,1,.621.037c1.149.124,1.736.637,1.627,2.142-.14,2.44,1.2,3.5,3.543,3.5h9c1.984-.019,3.471-.956,3.329-3.046-.106-1.8.512-2.391,1.611-2.583a8.852,8.852,0,0,1,1.469-.124c7.911-.267,12.55-5.188,12.569-13.171.016-10.815.087-21.629-.053-32.444a11.59,11.59,0,0,1,2.44-8.039,1.807,1.807,0,0,1,.143-.193,30.276,30.276,0,0,0,4.707-7.241c.975-2.229,1.878-1.947,3.558-1.115,3.912,1.965,7.911,3.769,11.861,5.663,5.151,2.462,7.7,1.453,9.486-4,3.49-10.557,6.868-21.154,10.287-31.739,2.673-8.231,5.434-16.456,7.911-24.728C192.513,34.529,189.027,30.015,183.292,30.316ZM49.686,75.1c0-10.6-.019-21.2.016-31.807,0-4.48,1.453-5.965,5.983-6,10.5-.053,20.993.037,31.49-.071,2.459,0,3.046.931,3.027,3.242q-.109,28.41,0,56.855c0,1.863-.531,2.956-2.319,3.63a156.441,156.441,0,0,1-34.695,9.026c-2.549.354-3.592-.177-3.558-3.061C49.791,96.306,49.686,85.7,49.686,75.1Zm39.526,74.612h-.019a1.9,1.9,0,0,1-1.115.354H51.816a2,2,0,0,1-2-2V146.01a11.708,11.708,0,0,1-.121-1.627c-.037-7.809,0-15.63.016-23.455,0-1.363-.248-2.745,1.878-3.009,12.957-1.646,25.116-6,37.048-11.116.369-.161.761-.233,1.537-.478v10.762c0,9.936-.068,19.912.056,29.86C90.221,148.435,89.972,149.285,89.212,149.711ZM91.637,31.1c-4.6,0-9.206-.071-13.789.034-1.788.037-2.285-.531-2.462-2.335a12.308,12.308,0,0,1,0-2.531c.267-2.993,1.469-5.738,2.568-8.48a6.538,6.538,0,0,1,6.39-4.089c4.5-.053,8.973-.09,13.469.019a7.254,7.254,0,0,1,7.241,6.052A8.175,8.175,0,0,0,107,23.684a4.167,4.167,0,0,1,1.015,2.58,27.765,27.765,0,0,1-.407,4.142c-.09,1.043-1.4.671-2.2.671-4.592.037-9.175.019-13.777.019ZM97,37.454c10.178.161,20.356.037,30.515.09,4.657.019,5.9,1.242,6.126,5.84.478,8.852.478,8.852-7.5,12.569-4.657,2.158-9.293,4.347-13.951,6.52-3.344,1.574-5.573,3.984-5.521,7.877.053,3.769,2.3,6.107,5.521,7.61,3.366,1.577,6.781,3.08,10.746,4.887A192.213,192.213,0,0,1,95.176,97.662c-1.344.584-1.736,0-1.717-1.242.019-.425,0-.851,0-1.276,0-18.009.053-35.986-.053-53.97-.019-2.732.689-3.748,3.592-3.726Zm36.713,110.608a1.987,1.987,0,0,1-2,2H95.44a2,2,0,0,1-2-2V116.041a2.546,2.546,0,0,1,.037-.354c0-3.043,0-6.1-.019-9.169a2.534,2.534,0,0,1,1.552-2.531,226.838,226.838,0,0,0,29.134-16.6c1.382,6.582,3.186,12.9,6.567,17.984a18.591,18.591,0,0,1,2.993,10.461Zm9.079-53.74a4.781,4.781,0,0,1-.565.994c-1.931,2.655-3.807,5.381-6.232,8.8-2.071-5.517-3.875-10.284-5.623-15.081a2.372,2.372,0,0,1,.674-2.9c.984-.761,1.838-.158,2.67.311,2.484,1.431,4.968,2.919,7.436,4.387a4,4,0,0,1,1.627,1.552,2.226,2.226,0,0,1,.012,1.944Zm42.271-53.455c-2.444,7.762-4.94,15.469-7.433,23.206-3.257,10.069-6.551,20.108-9.718,30.2-.621,2.071-1.363,2.391-3.329,1.434-7.2-3.521-14.531-6.815-21.791-10.231-4.62-2.173-4.921-4.319-1.434-7.964.478-.5.956-1.009,1.434-1.506q11.737-12.268,23.383-24.641-11.709,8.365-23.383,16.782-4.512,3.235-9.026,6.52c-3.931,2.866-7.949,3.381-12.339,1.22-2.105-1.028-4.266-1.981-6.39-2.975-1.2-.531-2.531-1.1-2.617-2.549-.109-1.661,1.344-2.282,2.6-2.866q12.342-5.816,24.691-11.56l3.08-1.431q18.94-8.868,37.88-17.7c1.4-.655,2.922-2,4.443-.692C186.779,37.538,185.558,39.327,185.062,40.867Z" transform="translate(-11.204 -6.096)" fill="#3b3f3e"/><path d="M247.022,207.644c0-2.331-.028-4.66,0-6.991.018-1.181.108-2.532,1.351-2.495,1.067.031,1.234,1.255,1.234,2.331q.052,7.145.022,14.3c0,1.132-.274,2.3-1.258,2.347-1.215.059-1.329-1.308-1.348-2.5C247.007,212.294,247.025,209.975,247.022,207.644Z" transform="translate(-173.786 -138.467)" fill="#3b3f3e"/><path d="M288.255,207.428v7.321c0,1.2-.308,2.2-1.351,2.159-.845-.031-1.314-.925-1.32-1.974-.034-5.094-.043-10.176,0-15.277,0-1.144.487-2.088,1.542-1.977.965.1,1.122,1.086,1.129,2.094C288.268,202.333,288.259,204.881,288.255,207.428Z" transform="translate(-200.362 -138.131)" fill="#3b3f3e"/></g></svg>