<svg id="Capa_1" data-name="Capa 1" xmlns="http://www.w3.org/2000/svg" xmlns:xlink="http://www.w3.org/1999/xlink" viewBox="0 0 595.28 516.89"><defs><style>.cls-1{fill:url(#Áåçûìÿííûé_ãðàäèåíò_37);}.cls-2{fill:#fff;}.cls-3{fill:#3b3f3e;}</style><linearGradient id="Áåçûìÿííûé_ãðàäèåíò_37" x1="263.18" y1="71.05" x2="263.18" y2="493.94" gradientUnits="userSpaceOnUse"><stop offset="0" stop-color="#00a9e3"/><stop offset="1" stop-color="#ca68a6"/></linearGradient></defs><title>simbolo_logo</title><path class="cls-1" d="M435,142.48V320.74c-6.27,7.76-8,16.08-7.86,25.89.45,34.83.22,69.66.17,104.49-.06,25.71-15,41.56-40.48,42.42a28.52,28.52,0,0,0-4.73.4H159.36a14.52,14.52,0,0,0-3.47-.46c-28.45-1-42.7-16.13-42.76-44.47,0-24.17-.23-48.28.17-72.45.11-6.73-2-8.73-8.72-8.84-4.45-.06-8.84-.34-13.23-.8V341.55c21.84,3.59,21.78,1.37,21.78-25.25,0-37.63-.23-75.2.17-112.77.11-9.52-2.28-10.2-10.2-6.15-3.94,2-7.87,4-11.75,6.1V185.12c4.56-2.22,9.18-4.28,13.86-6.27,6-2.57,8.32-5.7,8.09-12.26-.51-13.11-.34-26.16-.11-39.28.34-24.4,16.87-40.53,41.33-40.7,14.48-.06,29,.23,43.44-.12,3.65-.11,9.86,2.68,10.49-3,.4-3.87,1.82-8.38,1.48-12.42h8a39.64,39.64,0,0,0,0,8.15c.57,5.81,2.17,7.64,7.93,7.52,14.76-.34,29.58-.11,44.41-.11s29.58.06,44.41-.06c2.56,0,6.78,1.2,7.07-2.16.39-4.34,1.59-9,1.31-13.34H331c-.17,4.38,1,9.17,1.43,13.45.4,3.31,4.67,2,7.18,2,15.22.12,30.39.06,45.55.06,26.05.11,42,15.9,42.19,41.67C427.42,142.08,427.42,145.27,435,142.48Z"/><path class="cls-2" d="M433.17,293.41c-6.23,8.59-12.26,17.35-20,28.38C406.45,304,400.62,288.64,395,273.22c-1.26-3.39-1-6.93,2.18-9.39s6-.48,8.59,1c8,4.62,16,9.44,24,14.16C435.93,282.64,437.74,287.13,433.17,293.41Z"/><path class="cls-2" d="M571.14,118.1c-7.86,24.94-15.93,49.82-23.94,74.71-10.47,32.42-21.09,64.79-31.29,97.29-2.08,6.63-4.39,7.66-10.75,4.57-23.2-11.3-46.76-21.9-70.14-32.9-14.89-7-15.87-13.91-4.62-25.67q40.08-42,79.89-84.2c-34.83,24.91-69.72,49.85-104.37,75-12.66,9.22-25.62,10.9-39.73,3.94-6.78-3.34-13.71-6.4-20.59-9.56-3.84-1.74-8.11-3.54-8.41-8.22-.38-5.39,4.31-7.35,8.38-9.26q39.75-18.69,79.51-37.24Q491,135.72,557,104.94c4.47-2.09,9.37-6.43,14.29-2.19C576.69,107.38,572.72,113.1,571.14,118.1Z"/><path class="cls-3" d="M565.44,84.1c-5.7.29-10.6,2.62-15.62,5Q497,113.78,444.07,138.49c-3.82,1.76-6.79,3.13-9.07,4-7.58,2.79-7.58-.4-7.69-14.2-.17-25.77-16.14-41.56-42.19-41.67-15.16,0-30.33.06-45.55-.06-2.51,0-6.78,1.26-7.18-2-.46-4.28-1.6-9.07-1.43-13.45a13.49,13.49,0,0,1,2.74-8.56c6.15-7.81,5.3-15.27,3-23.31-5.59-19.5-21.84-32.1-42.87-32.73C277,6,260,5.94,243.17,6.45c-23.32.75-40.82,16.65-44.07,38.88-1.08,7.3-.29,13.23,6.5,18.08a9.85,9.85,0,0,1,4.33,7.64c.34,4-1.08,8.55-1.48,12.42-.63,5.7-6.84,2.91-10.49,3-14.48.35-29,.06-43.44.12-24.46.17-41,16.3-41.33,40.7-.23,13.12-.4,26.17.11,39.28.23,6.56-2,9.69-8.09,12.26-4.68,2-9.3,4.05-13.86,6.27-19.67,9.41-38.25,20.75-54.56,35.69-10.71,9.86-20.35,20.69-24.17,35.29-3.13,12-1.42,23,8.67,33.52C17.75,267.9,27.84,253,41,239.51c14.7-15,32.09-26.17,50.39-36,3.88-2.11,7.81-4.11,11.75-6.1,7.92-4,10.31-3.37,10.2,6.15-.4,37.57-.17,75.14-.17,112.77,0,26.62.06,28.84-21.78,25.25-2.16-.4-4.56-.8-7.24-1.25-25.82-4.39-49.48-13.46-70.18-30.22a72.83,72.83,0,0,0,30.68,41.11c14.36,9.4,30.27,14,46.74,15.73,4.39.46,8.78.74,13.23.8,6.73.11,8.83,2.11,8.72,8.84-.4,24.17-.17,48.28-.17,72.45.06,28.34,14.31,43.45,42.76,44.47a14.52,14.52,0,0,1,3.47.46c3.71.8,5.08,3,4.74,7.92-.46,7.7,4.33,10.21,11.17,10.21,9.35,0,18.64-.06,28,0,7.41.11,11.92-3.08,11.92-10.89-.06-4.28,1-6.67,4.84-7.24a12.12,12.12,0,0,1,2.23-.17c16,.11,32.09.17,48.11.17s32.1-.06,48.12-.12c.74,0,1.42.06,2,.12,3.7.4,5.59,2.05,5.24,6.9-.45,7.86,3.88,11.28,11.41,11.28,9.69,0,19.32,0,29,0,6.39-.06,11.18-3.08,10.72-9.81-.34-5.81,1.65-7.7,5.19-8.32a28.52,28.52,0,0,1,4.73-.4c25.48-.86,40.42-16.71,40.48-42.42.05-34.83.28-69.66-.17-104.49-.18-9.81,1.59-18.13,7.86-25.89a5.81,5.81,0,0,1,.46-.62c5.93-7.07,11.51-14.88,15.16-23.32,3.14-7.18,6.05-6.27,11.46-3.59,12.6,6.33,25.48,12.14,38.2,18.24,16.59,7.93,24.8,4.68,30.55-12.88,11.24-34,22.12-68.13,33.13-102.22,8.61-26.51,17.5-53,25.48-79.64C595.14,97.67,583.91,83.13,565.44,84.1ZM135.14,228.33c0-34.15-.06-68.29.05-102.44,0-14.43,4.68-19.21,19.27-19.33,33.81-.17,67.61.12,101.42-.23,7.92,0,9.81,3,9.75,10.44q-.35,91.5,0,183.11c0,6-1.71,9.52-7.47,11.69-36.2,13.74-73.26,23.88-111.74,29.07-8.21,1.14-11.57-.57-11.46-9.86C135.48,296.63,135.14,262.48,135.14,228.33Zm127.3,240.3h-.06a6.13,6.13,0,0,1-3.59,1.14H142a6.44,6.44,0,0,1-6.45-6.45v-6.61a37.71,37.71,0,0,1-.39-5.24c-.12-25.15,0-50.34.05-75.54,0-4.39-.8-8.84,6.05-9.69,41.73-5.3,80.89-19.33,119.32-35.8,1.19-.52,2.45-.75,4.95-1.54v34.66c0,32-.22,64.13.18,96.17C265.69,464.52,264.89,467.26,262.44,468.63Zm7.81-382c-14.83,0-29.65-.23-44.41.11-5.76.12-7.36-1.71-7.93-7.52a39.64,39.64,0,0,1,0-8.15c.86-9.64,4.73-18.48,8.27-27.31,3.42-8.61,11.12-13.06,20.58-13.17,14.48-.17,28.9-.29,43.38.06,12,.22,20.75,7.63,23.32,19.49a26.33,26.33,0,0,0,6.27,12.6A13.42,13.42,0,0,1,323,71.05c.28,4.38-.92,9-1.31,13.34-.29,3.36-4.51,2.16-7.07,2.16C299.83,86.67,285.07,86.61,270.25,86.61Zm17.27,20.46c32.78.52,65.56.12,98.28.29,15,.06,19,4,19.73,18.81,1.54,28.51,1.54,28.51-24.17,40.48-15,6.95-29.93,14-44.93,21-10.77,5.07-17.95,12.83-17.78,25.37.17,12.14,7.41,19.67,17.78,24.51,10.84,5.08,21.84,9.92,34.61,15.74A619.05,619.05,0,0,1,281.65,301c-4.33,1.88-5.59,0-5.53-4,.06-1.37,0-2.74,0-4.11,0-58,.17-115.9-.17-173.82C275.89,110.27,278.17,107,287.52,107.07ZM405.76,463.32a6.4,6.4,0,0,1-6.44,6.45H282.5a6.44,6.44,0,0,1-6.44-6.45V360.19a8.2,8.2,0,0,1,.12-1.14c0-9.8,0-19.66-.06-29.53,0-3.93,1.59-6.55,5-8.15,32.43-15.16,63.16-33.18,93.83-53.47,4.45,21.2,10.26,41.56,21.15,57.92,7.41,11.06,9.41,22.35,9.64,33.69ZM435,290.24a15.4,15.4,0,0,1-1.82,3.2c-6.22,8.55-12.26,17.33-20.07,28.33C406.44,304,400.63,288.65,395,273.2c-1.26-3.36-1-6.9,2.17-9.35s5.92-.51,8.6,1c8,4.61,16,9.4,23.95,14.13,2.56,1.54,4.33,3.14,5.24,5A7.17,7.17,0,0,1,435,290.24ZM571.14,118.08c-7.87,25-15.91,49.82-23.94,74.74-10.49,32.43-21.1,64.76-31.3,97.25-2,6.67-4.39,7.7-10.72,4.62-23.2-11.34-46.8-21.95-70.18-32.95-14.88-7-15.85-13.91-4.62-25.65,1.54-1.6,3.08-3.25,4.62-4.85q37.8-39.51,75.31-79.36Q472.6,178.82,435,205.93q-14.53,10.42-29.07,21c-12.66,9.23-25.6,10.89-39.74,3.93-6.78-3.31-13.74-6.38-20.58-9.58-3.87-1.71-8.15-3.53-8.43-8.21-.35-5.35,4.33-7.35,8.38-9.23q39.75-18.73,79.52-37.23L435,162q61-28.56,122-57c4.51-2.11,9.41-6.45,14.31-2.23C576.67,107.36,572.74,113.12,571.14,118.08Z"/><path class="cls-3" d="M247.05,228.92c0-7.56-.09-15.11,0-22.67.06-3.83.35-8.21,4.38-8.09,3.46.1,4,4.07,4,7.56q.17,23.17.07,46.36c0,3.67-.89,7.45-4.08,7.61-3.94.19-4.31-4.24-4.37-8.1C247,244,247.06,236.48,247.05,228.92Z"/><path class="cls-3" d="M294.31,229.31q0,11.87,0,23.74c0,3.9-1,7.15-4.38,7-2.74-.1-4.26-3-4.28-6.4-.11-16.52-.14-33,0-49.54,0-3.71,1.58-6.77,5-6.41,3.13.33,3.64,3.52,3.66,6.79C294.35,212.79,294.32,221.05,294.31,229.31Z"/></svg>