<?xml version="1.0" encoding="utf-8"?>
<!-- Generator: Adobe Illustrator 22.0.1, SVG Export Plug-In . SVG Version: 6.00 Build 0)  -->
<svg version="1.1" id="Capa_1" xmlns="http://www.w3.org/2000/svg" xmlns:xlink="http://www.w3.org/1999/xlink" x="0px" y="0px"
	 viewBox="0 0 924.1 274.7" style="enable-background:new 0 0 924.1 274.7;" xml:space="preserve">
<style type="text/css">
	.st0{fill:#FFFFFF;}
	.st1{fill:#3B3F3E;}
	.st2{clip-path:url(#SVGID_2_);fill:url(#SVGID_3_);}
	.st3{clip-path:url(#SVGID_5_);fill:url(#SVGID_6_);}
	.st4{clip-path:url(#SVGID_8_);fill:url(#SVGID_9_);}
	.st5{clip-path:url(#SVGID_11_);fill:url(#SVGID_12_);}
	.st6{fill:url(#SVGID_13_);}
	.st7{clip-path:url(#SVGID_15_);fill:#FFFFFF;}
	.st8{clip-path:url(#SVGID_17_);fill:#FFFFFF;}
	.st9{clip-path:url(#SVGID_19_);fill:#FFFFFF;}
	.st10{clip-path:url(#SVGID_21_);fill:#FFFFFF;}
	.st11{clip-path:url(#SVGID_23_);fill:#3B3F3E;}
	.st12{clip-path:url(#SVGID_25_);fill:#3B3F3E;}
	.st13{clip-path:url(#SVGID_27_);fill:#3B3F3E;}
	.st14{clip-path:url(#SVGID_29_);fill:#3B3F3E;}
	.st15{fill:url(#SVGID_30_);}
	.st16{clip-path:url(#SVGID_32_);fill:#3B3F3E;}
	.st17{clip-path:url(#SVGID_34_);fill:#3B3F3E;}
	.st18{clip-path:url(#SVGID_36_);fill:#3B3F3E;}
	.st19{clip-path:url(#SVGID_38_);fill:#3B3F3E;}
	.st20{clip-path:url(#SVGID_40_);fill:#FFFFFF;}
	.st21{clip-path:url(#SVGID_42_);fill:#FFFFFF;}
	.st22{clip-path:url(#SVGID_44_);fill:#FFFFFF;}
	.st23{clip-path:url(#SVGID_46_);fill:#FFFFFF;}
	.st24{clip-path:url(#SVGID_48_);fill:url(#SVGID_49_);}
	.st25{clip-path:url(#SVGID_51_);fill:url(#SVGID_52_);}
	.st26{clip-path:url(#SVGID_54_);fill:url(#SVGID_55_);}
	.st27{clip-path:url(#SVGID_57_);fill:url(#SVGID_58_);}
</style>
<g>
	<g>
		<path class="st1" d="M19,86.6c0-1.2,0.4-2.2,1.1-2.9c0.7-0.7,1.6-1.1,2.8-1.1h70.1c1,0,1.9,0.4,2.7,1.1c0.8,0.7,1.2,1.7,1.2,2.9
			V101c0,1.1-0.4,2.1-1.2,2.9c-0.8,0.8-1.7,1.2-2.7,1.2H72.3c-0.9,0-1.6,0.3-2.3,1c-0.6,0.7-0.9,1.5-0.9,2.3v80c0,1-0.4,1.9-1.1,2.7
			c-0.7,0.8-1.7,1.2-2.8,1.2H50.5c-1,0-1.9-0.4-2.7-1.2c-0.8-0.8-1.2-1.7-1.2-2.7v-79.5c0-0.9-0.3-1.8-0.8-2.6
			c-0.6-0.8-1.3-1.3-2.2-1.3H22.8c-1.1,0-2-0.4-2.8-1.2c-0.7-0.8-1.1-1.7-1.1-2.9V86.6z"/>
		<path class="st1" d="M134.5,165.4c-2,0.6-3,1.7-3,3.5v19.4c0,1-0.4,1.9-1.1,2.7c-0.7,0.8-1.7,1.2-2.8,1.2h-14.8
			c-1.1,0-2-0.4-2.8-1.2c-0.7-0.8-1.1-1.7-1.1-2.7V86.6c0-1.2,0.4-2.2,1.1-2.9c0.7-0.7,1.6-1.1,2.8-1.1h25.7c7.8,0,14.8,0.7,20.8,2
			c6,1.3,11.1,3.5,15.3,6.6c4.1,3.1,7.3,7.2,9.5,12.2c2.2,5.1,3.3,11.3,3.3,18.7c0,5.7-1.5,11.2-4.4,16.4c-3,5.3-6.8,9.8-11.5,13.7
			c-1.7,1.3-2.7,2.5-3.1,3.6c-0.4,1.1-0.2,2.7,0.6,4.8l12.9,26.7c0.6,1.2,0.8,2.4,0.6,3.4c-0.2,1-1.1,1.5-2.9,1.5H163
			c-1.3,0-2.3-0.3-2.9-0.8c-0.6-0.5-1.1-1-1.4-1.6l-13.6-24.3c-0.2-0.6-0.8-0.9-1.7-1.2c-0.9-0.2-2-0.3-3.2-0.2
			c-1,0.1-1.9,0.2-2.7,0.3C136.7,164.6,135.7,164.9,134.5,165.4z M134.8,105c-0.9,0-1.7,0.3-2.3,1c-0.7,0.7-1,1.5-1,2.3V139
			c0,1.1,0.3,2,0.8,2.8c0.6,0.7,1.3,1.1,2.3,1.1h3.9c3.8,0,7.3-0.5,10.6-1.5c3.2-1,6-2.4,8.3-4.1c2.3-1.7,4.1-3.7,5.4-6
			c1.3-2.3,1.9-4.7,1.9-7.3c0-3.8-0.6-6.9-1.9-9.4c-1.3-2.5-3.1-4.4-5.4-5.9c-2.3-1.4-5.1-2.4-8.3-2.9c-3.2-0.5-6.8-0.8-10.6-0.8
			H134.8z"/>
		<path class="st1" d="M267.8,192.2c-1,0-2.2-0.1-3.4-0.2c-1.3-0.1-2.2-1-2.8-2.5l-5.5-15.8c-0.4-1.1-1-2-1.6-2.7
			c-0.6-0.7-1.5-1-2.8-1h-24.5c-0.9,0-1.7,0.4-2.4,1.1c-0.7,0.7-1.1,1.4-1.3,2.1l-5.5,16.3c-0.6,1.6-1.5,2.4-2.8,2.5
			c-1.3,0.1-2.4,0.2-3.4,0.2h-14.1c-1,0-1.7-0.5-2.2-1.6s-0.5-2.2-0.2-3.3l36-102.4c0.2-0.6,0.7-1.1,1.5-1.6
			c0.8-0.5,1.6-0.8,2.5-0.8h8.9c0.9,0,1.7,0.2,2.4,0.7c0.7,0.5,1.2,1,1.4,1.5l35.9,102.6c0.4,1,0.5,2.1,0.2,3.2
			c-0.3,1.1-1.2,1.7-2.5,1.7H267.8z M234.3,144.6c-0.2,0.7-0.2,1.3,0.1,2c0.3,0.7,1.3,1,3.1,1h5.7c1.6,0,2.4-0.3,2.5-0.9
			c0.1-0.6,0.1-1.2-0.2-1.8l-3.5-10.4c-0.4-1.1-1.2-1.6-2.3-1.3c-1.1,0.2-1.8,0.8-2.1,1.7L234.3,144.6z"/>
		<path class="st1" d="M349.6,85.1c0.6-1.5,1.5-2.2,2.8-2.3c1.3-0.1,2.4-0.2,3.4-0.2h13.9c1.3,0,2.2,0.5,2.5,1.6
			c0.3,1.1,0.3,2.1-0.2,3.1l-35.9,102.6c-0.2,0.7-0.7,1.2-1.4,1.7s-1.5,0.7-2.4,0.7h-8.9c-0.9,0-1.7-0.3-2.5-0.8
			c-0.8-0.5-1.3-1.1-1.5-1.8l-36-102.4c-0.3-1.1-0.3-2.2,0.2-3.2c0.4-1,1.2-1.5,2.2-1.5h14.1c1,0,2.1,0.1,3.4,0.2
			c1.3,0.1,2.2,0.9,2.8,2.3l19.6,54.8c0.3,0.9,1,1.4,2.1,1.6c1.1,0.2,1.8-0.3,2.3-1.4L349.6,85.1z"/>
		<path class="st1" d="M451.1,82.5c1,0,1.9,0.4,2.7,1.1c0.8,0.7,1.2,1.7,1.2,2.9V101c0,1.1-0.4,2.1-1.2,2.9
			c-0.8,0.8-1.7,1.2-2.7,1.2h-40.6c-0.9,0-1.6,0.4-2.2,1.3c-0.6,0.8-0.8,1.7-0.8,2.6v15.3c0,1.1,0.3,2.1,0.8,2.9
			c0.6,0.8,1.3,1.2,2.2,1.2h40.6c1,0,1.9,0.4,2.7,1.2c0.8,0.8,1.2,1.7,1.2,2.7v14.8c0,1.1-0.4,2-1.2,2.8c-0.8,0.7-1.7,1.1-2.7,1.1
			h-40.6c-0.9,0-1.6,0.3-2.2,1c-0.6,0.7-0.8,1.5-0.8,2.3v12.4c0,1,0.3,1.8,0.9,2.4c0.6,0.6,1.4,0.9,2.3,0.9h40.4
			c1,0,1.9,0.4,2.7,1.1c0.8,0.7,1.2,1.7,1.2,2.8v14.8c0,1.1-0.4,2-1.2,2.8c-0.8,0.7-1.7,1.1-2.7,1.1h-62.2c-1.1,0-2-0.4-2.8-1.2
			c-0.7-0.8-1.1-1.7-1.1-2.7V86.6c0-1.2,0.4-2.2,1.1-2.9c0.7-0.7,1.6-1.1,2.8-1.1H451.1z"/>
	</g>
	<g>
		<g>
			<defs>
				<path id="SVGID_39_" d="M492,82.5c1.1,0,2,0.4,2.8,1.1c0.7,0.7,1.1,1.7,1.1,2.9v79.1c0,1.6,0.3,2.6,0.8,3.2
					c0.6,0.6,1.3,0.8,2.2,0.8h40.6c1,0,1.9,0.4,2.7,1.1c0.8,0.7,1.2,1.7,1.2,2.8v14.8c0,1.1-0.4,2-1.2,2.8c-0.8,0.7-1.7,1.1-2.7,1.1
					h-62.2c-1.2,0-2.2-0.4-2.9-1.2c-0.7-0.8-1-1.7-1-2.7V86.6c0-1.2,0.4-2.2,1.1-2.9c0.7-0.7,1.6-1.1,2.8-1.1H492z"/>
			</defs>
			<use xlink:href="#SVGID_39_"  style="overflow:visible;fill:#FFFFFF;"/>
			<clipPath id="SVGID_2_">
				<use xlink:href="#SVGID_39_"  style="overflow:visible;"/>
			</clipPath>
			
				<rect x="598.5" y="-106.8" transform="matrix(-1.836970e-16 1 -1 -1.836970e-16 806.8767 -550.671)" style="clip-path:url(#SVGID_2_);fill:#FFFFFF;" width="160.5" height="469.8"/>
		</g>
		<g>
			<defs>
				<path id="SVGID_41_" d="M543.3,137.5c0-7.8,1.5-15.1,4.4-22c3-6.8,7-12.8,12.1-17.9c5.1-5.1,11-9.2,17.9-12.2
					c6.8-3,14.1-4.4,21.8-4.4c7.8,0,15.2,1.5,22,4.4c6.9,3,12.9,7,17.9,12.2c5.1,5.1,9.1,11.1,12.1,17.9c3,6.8,4.4,14.1,4.4,22
					c0,7.8-1.5,15.1-4.4,22c-3,6.8-7,12.8-12.1,17.9c-5.1,5.1-11.1,9.1-17.9,12c-6.9,2.9-14.2,4.4-22,4.4c-7.7,0-15-1.5-21.8-4.4
					c-6.8-2.9-12.8-6.9-17.9-12c-5.1-5.1-9.1-11-12.1-17.9C544.7,152.7,543.3,145.4,543.3,137.5z M565.7,137.5
					c0,4.8,0.9,9.3,2.6,13.4c1.7,4.1,4.1,7.7,7.1,10.7c3,3,6.6,5.4,10.6,7.1s8.5,2.6,13.3,2.6c4.8,0,9.3-0.9,13.5-2.6
					c4.2-1.7,7.8-4.1,10.8-7.1c3-3,5.4-6.6,7.1-10.7c1.7-4.1,2.6-8.6,2.6-13.4c0-4.8-0.9-9.3-2.6-13.4c-1.7-4.1-4.1-7.7-7.1-10.8
					c-3-3.1-6.6-5.5-10.8-7.2c-4.2-1.7-8.7-2.6-13.5-2.6c-4.8,0-9.2,0.9-13.3,2.6c-4.1,1.7-7.6,4.1-10.6,7.2
					c-3,3.1-5.4,6.7-7.1,10.8C566.6,128.3,565.7,132.7,565.7,137.5z"/>
			</defs>
			<use xlink:href="#SVGID_41_"  style="overflow:visible;fill:#FFFFFF;"/>
			<clipPath id="SVGID_3_">
				<use xlink:href="#SVGID_41_"  style="overflow:visible;"/>
			</clipPath>
			
				<rect x="598.5" y="-106.8" transform="matrix(-1.836970e-16 1 -1 -1.836970e-16 806.8767 -550.671)" style="clip-path:url(#SVGID_3_);fill:#FFFFFF;" width="160.5" height="469.8"/>
		</g>
		<g>
			<defs>
				<path id="SVGID_43_" d="M668.3,137.5c0-7.8,1.5-15.1,4.4-22c3-6.8,7-12.8,12.1-17.9c5.1-5.1,11-9.2,17.9-12.2
					c6.8-3,14.1-4.4,21.8-4.4c7.8,0,15.2,1.5,22,4.4c6.9,3,12.9,7,17.9,12.2c5.1,5.1,9.1,11.1,12.1,17.9c3,6.8,4.4,14.1,4.4,22
					c0,7.8-1.5,15.1-4.4,22c-3,6.8-7,12.8-12.1,17.9c-5.1,5.1-11.1,9.1-17.9,12c-6.9,2.9-14.2,4.4-22,4.4c-7.7,0-15-1.5-21.8-4.4
					c-6.8-2.9-12.8-6.9-17.9-12c-5.1-5.1-9.1-11-12.1-17.9C669.8,152.7,668.3,145.4,668.3,137.5z M690.8,137.5
					c0,4.8,0.9,9.3,2.6,13.4c1.7,4.1,4.1,7.7,7.1,10.7c3,3,6.6,5.4,10.6,7.1c4.1,1.7,8.5,2.6,13.3,2.6c4.8,0,9.3-0.9,13.5-2.6
					c4.2-1.7,7.8-4.1,10.8-7.1c3-3,5.4-6.6,7.1-10.7c1.7-4.1,2.6-8.6,2.6-13.4c0-4.8-0.9-9.3-2.6-13.4c-1.7-4.1-4.1-7.7-7.1-10.8
					c-3-3.1-6.6-5.5-10.8-7.2c-4.2-1.7-8.7-2.6-13.5-2.6c-4.8,0-9.2,0.9-13.3,2.6c-4.1,1.7-7.6,4.1-10.6,7.2
					c-3,3.1-5.4,6.7-7.1,10.8C691.7,128.3,690.8,132.7,690.8,137.5z"/>
			</defs>
			<use xlink:href="#SVGID_43_"  style="overflow:visible;fill:#FFFFFF;"/>
			<clipPath id="SVGID_5_">
				<use xlink:href="#SVGID_43_"  style="overflow:visible;"/>
			</clipPath>
			
				<rect x="598.5" y="-106.8" transform="matrix(-1.836970e-16 1 -1 -1.836970e-16 806.8767 -550.671)" style="clip-path:url(#SVGID_5_);fill:#FFFFFF;" width="160.5" height="469.8"/>
		</g>
		<g>
			<defs>
				<path id="SVGID_45_" d="M868.2,192.2c-1.1,0-2-0.3-2.6-1c-0.6-0.7-1.4-1.6-2.3-2.9l-29.5-39.4c-0.2-0.4-0.9-0.6-1.9-0.6
					c-1.1,0.1-2.1,0.7-3.1,1.9l-8.7,11.4c-0.4,0.7-0.8,1.3-0.9,1.9c-0.2,0.6-0.3,1.4-0.3,2.4v22.3c0,1-0.4,1.9-1.1,2.7
					c-0.7,0.8-1.7,1.2-2.8,1.2h-14.8c-1.1,0-2-0.4-2.8-1.2c-0.7-0.8-1.1-1.7-1.1-2.7V86.6c0-1.2,0.4-2.2,1.1-2.9
					c0.7-0.7,1.6-1.1,2.8-1.1H815c1.1,0,2,0.4,2.8,1.1c0.7,0.7,1.1,1.7,1.1,2.9v36c0,1.9,0.5,3,1.6,3.3c1.1,0.3,1.9-0.1,2.6-1.1
					l30.2-40.1c0.6-0.9,1.1-1.5,1.7-1.8c0.6-0.3,1.2-0.4,1.8-0.4h18.8c1.1,0,2,0.4,2.6,1.3c0.6,0.8,0.5,1.8-0.3,2.8l-31,40.2
					c-0.4,0.7-0.6,1.6-0.3,2.8c0.2,1.2,1.1,2.7,2.5,4.6l40.4,54.2c0.7,1,0.7,1.9,0.1,2.7c-0.6,0.8-1.5,1.2-2.6,1.2H868.2z"/>
			</defs>
			<use xlink:href="#SVGID_45_"  style="overflow:visible;fill:#FFFFFF;"/>
			<clipPath id="SVGID_6_">
				<use xlink:href="#SVGID_45_"  style="overflow:visible;"/>
			</clipPath>
			
				<rect x="598.5" y="-106.8" transform="matrix(-1.836970e-16 1 -1 -1.836970e-16 806.8767 -550.671)" style="clip-path:url(#SVGID_6_);fill:#FFFFFF;" width="160.5" height="469.8"/>
		</g>
	</g>
</g>
</svg>
